<svg width="521" height="160" viewBox="0 0 521 160" fill="none" xmlns="http://www.w3.org/2000/svg">
<path d="M498.427 14.4812C496.296 10.9824 495.602 10.5956 493.745 10.8084C491.04 11.1125 492.217 14.821 493.058 16.1771C493.907 17.5332 496.778 18.956 498.476 21.878C500.178 24.8036 501.936 27.9835 503.279 30.5854C503.86 31.7148 505.192 30.9171 503.878 27.6992C503.064 25.7068 502.396 24.3108 501.573 22.6131C500.819 21.0588 499.68 18.8161 499.642 17.4805C499.623 16.8939 499.276 15.8695 498.427 14.4812ZM491.972 74.4692C490.667 75.0688 490.18 75.3255 490.18 75.3255C490.18 75.3255 492.044 76.4348 494.228 77.9725C496.835 79.8039 499.48 81.8862 499.48 81.8862L501.739 81.1847C505.011 80.1697 504.007 79.5772 497.823 76.0203C494.322 74.0011 494.043 73.5146 491.972 74.4692ZM431.107 47.0947C427.991 47.5512 424.396 49.1967 421.43 51.0339C416.691 53.9689 413.99 52.9181 413.99 52.9181C413.99 52.9181 415.59 52.4692 416.91 51.2222C418.605 49.6228 418.012 48.6914 416.345 48.6793C414.345 48.6681 414.036 50.4204 411.304 52.9651C409.327 54.8063 407.226 55.8776 404.958 56.1678C401.872 56.5586 399.869 55.2248 399.869 55.2248C399.869 55.2248 401.503 55.5191 403.544 54.7531C406.936 53.4824 404.381 51.7887 398.918 53.2955C394.353 54.5533 390.653 51.4748 389.121 49.6111C386.204 46.0614 387.43 40.4097 387.43 40.4097C387.43 40.4097 389.219 45.401 396.093 46.2501C399.046 46.6123 401.273 45.401 401.273 45.401C401.273 45.401 399.001 45.2955 397.602 44.2711C395.153 42.4848 396.376 39.4703 396.376 39.4703C396.376 39.4703 401.367 44.4616 411.87 42.0131C422.03 39.642 429.315 40.8398 434.05 42.1808C438.781 43.5239 441.875 45.5789 441.875 45.5789C442.942 45.1256 444.074 44.3824 445.27 44.284C447.794 43.9295 450.254 44.0279 452.709 44.3824C456.754 45.0916 460.474 46.6118 464.808 46.2233C466.842 45.997 468.815 44.2841 469.883 42.5076C469.883 42.5076 468.249 43.2297 465.74 42.8769C461.873 42.3359 460.983 39.6174 460.983 39.6174C460.983 39.6174 467.196 40.5268 469.2 36.9592C469.2 36.9592 467.461 37.3916 465.013 36.36C462.405 35.2619 462.904 33.5811 460.553 32.5264C458.897 31.7815 457.01 32.1566 457.01 32.1566C457.01 32.1566 459.814 28.043 464.714 29.0804C471.852 30.5916 471.898 27.3263 471.898 27.3263C471.898 27.3263 470.475 27.5954 469.049 27.079C464.827 25.5489 465.42 23.8436 460.119 24.2326C460.119 24.2326 462.79 20.0935 467.476 20.4677C472.924 20.9015 474.761 18.5791 474.761 18.5791C474.761 18.5791 470.936 18.8487 468.249 14.5554C468.249 14.5554 473.569 16.0157 478.817 12.4691C482.484 9.99019 485.672 9.64322 485.672 9.64322C484.762 6.79501 486.369 3.04853 487.188 1.94725C488 0.849103 488.531 0.354573 489.308 0C489.308 0 490.259 5.30831 491.391 6.57056C491.587 6.31212 491.836 5.62174 492.523 4.48604C493.44 2.96938 495.451 0.743576 496.831 0.743576C496.831 0.743576 496.865 2.68634 496.794 4.94658C496.726 7.20637 496.503 8.3537 496.503 8.3537C496.503 8.3537 497.446 9.55289 498.205 10.7373C498.971 11.9222 501.159 14.8854 501.159 17.3414C502.694 21.5462 506.048 27.654 505.912 30.0533C505.863 30.944 505.66 32.7396 504.361 34.0327C503.781 34.6073 502.551 35.0974 501.483 34.9391C499.348 34.7092 498.989 32.2532 497.567 31.185C495.692 30.314 493.624 29.6652 492.33 27.726C492.006 27.6598 492.168 28.0166 492.168 28.0166C492.168 28.0166 493.934 35.5315 494.251 38.9927C494.507 41.7453 494.892 47.5289 495.017 48.8756C495.133 50.2228 496.676 54.4531 496.824 55.6049C497.042 57.321 497.254 61.3822 497.246 63.5285C499.174 65.579 508.229 74.9978 509.858 76.5596C511.488 78.1236 515.37 82.2189 513.397 83.6336C511.809 85.2178 509.474 85.3389 506.719 85.8335C505.429 86.0651 503.328 86.5381 503.328 86.5381C503.328 86.5381 505.093 88.7756 508.312 93.4499C511.183 97.6341 514.868 100.013 516.064 102.144C517.102 103.978 520.663 109.039 520.792 109.612C520.916 110.193 521.018 110.328 520.792 110.62C519.611 111.322 517.626 111.163 515.812 111.101C513.997 111.038 513.258 110.933 512.971 110.367C512.488 109.431 512.412 107.673 511.541 106.899C509.311 105.119 508.953 102.531 508.47 100.037C507.919 98.2301 505.98 96.5324 504.78 95.6721C499.197 91.6864 494.851 88.3043 494.851 88.3043C494.851 88.3043 492.991 88.8453 490.682 89.5075C489.335 89.8925 488.211 90.4246 486.042 90.8923C484.423 91.2486 483.853 91.8393 481.714 92.0503C478.817 92.3334 475.04 89.9533 474.837 89.436C474.448 88.4456 475.508 87.9533 475.508 87.9533C475.508 87.9533 480.31 85.55 481.039 86.3915C481.556 86.9835 482.099 87.4136 482.891 87.1762C483.702 86.9267 483.125 85.85 484.231 85.3045C484.517 85.1614 485.759 84.8954 486.419 84.9616C487.362 85.0559 488.991 84.7469 488.991 84.7469C486.105 83.3072 481.789 81.283 478.553 78.1138C478.553 78.1138 476.96 78.412 472.501 77.5933C470.392 77.2088 468.611 76.6579 466.895 76.0619C466.895 76.0619 466.657 77.3765 466.306 77.7275C464.654 80.1214 462.16 81.0116 461.123 83.634C461.093 84.0843 460.896 84.3767 461.063 84.8297C461.579 87.2535 464.039 88.6683 465.492 89.9073C466.94 91.1489 468.691 92.5708 470.147 93.5294C471.463 94.3987 472.505 95.9873 473.572 97.3774C474.515 98.0244 475.799 98.8015 476.511 99.8371C477.678 101.39 478.598 102.946 478.383 104.71C478.243 105.347 470.509 104.995 470.509 104.995C469.981 104.678 469.849 104.37 469.804 103.51C469.758 102.652 470.536 100.993 469.415 100.156C468.295 99.3166 466.491 98.8981 465.978 97.1834C465.458 94.8252 463.096 93.271 461.063 92.239C458.116 90.6848 454.72 90.1675 451.713 88.7756C450.873 88.2587 450.031 87.4176 450.159 86.3839C450.159 84.4103 451.404 83.973 452.521 81.8867C455.331 76.6392 454.909 73.1793 454.909 73.1793C454.909 73.1793 452.132 72.9191 446.824 73.1001C444.304 78.5685 438.901 83.5808 433.793 86.7496C430.59 88.983 429.745 92.8297 428.972 96.193C427.776 99.4941 427.421 102.985 425.026 105.7C423.475 108.32 421.019 110.639 418.461 112.027C417.812 112.287 416.503 112.755 415.952 112.204C415.597 111.914 415.741 105.847 415.741 105.847C415.873 105.266 416.227 104.829 416.842 104.699C417.684 104.376 419.166 105.919 419.521 104.082C419.875 102.244 421.781 102.455 423.147 100.46C424.671 97.2281 425.165 93.9842 424.637 89.8871C424.112 85.7879 423.286 82.7054 425.769 81.3492C432.303 77.7708 432.642 73.9984 432.563 65.4985C432.488 57.6809 435.65 52.2635 438.758 48.6945C438.758 48.6945 435.91 46.3873 431.107 47.0947ZM323.499 96.1536C330.575 103.004 340.457 106.147 350.45 106.147C367.857 106.147 375.716 95.7047 375.716 86.9441C375.716 82.2283 373.472 77.7355 369.989 75.0416C366.398 72.2309 363.142 71.6725 351.461 69.5374C344.275 68.3038 340.121 67.1811 340.121 63.139C340.121 60.2166 343.04 57.4118 349.439 57.4118C359.324 57.4118 363.142 62.9123 364.715 65.9452L374.259 57.0742C373.136 55.7252 371.336 53.8164 368.529 52.0207C364.715 49.325 358.535 46.6292 350.001 46.6292C334.616 46.6292 325.969 55.3894 325.969 64.9347C325.969 69.9877 328.44 77.736 341.803 80.8797C343.826 81.44 353.031 83.1243 354.944 83.5759C356.74 83.913 360.78 84.8091 360.78 88.4049C360.78 91.2111 357.411 95.0313 349.662 95.0313C341.916 95.0313 336.861 91.9962 333.492 87.8424L323.499 96.1536ZM320.638 104.462V66.6217C320.638 52.0216 313.312 46.6306 302.692 46.6306C294.667 46.6306 287.89 50.3373 284.613 57.4126H284.387V48.3149H270.929V104.462H285.111V70.7943C285.111 62.585 289.627 56.8917 296.886 56.8917C304.042 56.8917 306.684 61.9286 306.684 68.2779V104.462H320.638ZM251.255 69.2016C250.019 60.4433 244.629 57.4122 238.678 57.4122C231.49 57.4122 226.548 61.5656 224.978 69.2016H251.255ZM266.527 91.8831C259.564 101.208 250.58 106.147 239.126 106.147C224.416 106.147 210.265 96.827 210.265 76.1639C210.265 57.2986 222.395 46.6297 238.229 46.6297C253.051 46.6297 259.227 55.5029 260.349 57.1855C264.958 63.697 265.965 73.4686 266.082 79.0823H224.528C226.1 87.9555 231.603 93.0072 240.475 93.0072C249.682 93.0072 253.389 87.6162 255.073 85.2602L266.527 91.8831ZM209.609 95.4749C208.576 95.7501 207.511 95.8883 206.442 95.8858C198.39 95.8858 198.39 92.7246 198.39 84.5864V57.9702H209.609V48.314H198.391V28.4414H183.798V48.314H176.554V57.9702H183.799V87.8429C183.799 93.4583 183.799 97.0515 184.698 99.2974C187.28 106.147 196.715 106.147 199.523 106.147C203.091 106.147 206.728 105.409 209.61 103.972L209.609 95.4749ZM123.293 96.1536C130.37 103.004 140.25 106.147 150.245 106.147C167.652 106.147 175.513 95.7047 175.513 86.9441C175.513 82.2283 173.264 77.7355 169.785 75.0416C166.19 72.2309 162.934 71.6725 151.256 69.5374C144.068 68.3038 139.914 67.1811 139.914 63.139C139.914 60.2166 142.833 57.4118 149.234 57.4118C159.116 57.4118 162.934 62.9123 164.507 65.9452L174.05 57.0742C172.929 55.7252 171.13 53.8164 168.324 52.0207C164.507 49.325 158.329 46.6292 149.795 46.6292C134.411 46.6292 125.765 55.3894 125.765 64.9347C125.765 69.9877 128.235 77.736 141.599 80.8797C143.618 81.44 152.828 83.1243 154.737 83.5759C156.533 83.913 160.575 84.8091 160.575 88.4049C160.575 91.2111 157.206 95.0313 149.458 95.0313C141.709 95.0313 136.657 91.9962 133.288 87.8424L123.293 96.1536ZM48.0489 28.4414V59.8245H15.4604V28.4414H0V104.462H15.4604V73.076H48.0489V104.462H63.6219V28.4414H48.0489ZM106.971 104.462C105.684 101.766 104.979 98.603 105.215 95.5545C101.698 102.47 95.1923 106.155 87.224 106.155C75.3818 106.155 68.2926 99.7727 68.2926 88.7563C68.2926 61.7963 105.382 78.6718 105.382 64.6092C105.248 61.6326 104.347 57.0751 96.0271 57.0751C90.4121 57.0751 87.3819 58.8725 86.032 60.6686C84.5748 62.4643 84.687 64.0377 84.687 65.6085L70.8725 64.8224C71.0988 62.0154 71.3224 59.6581 73.118 56.4017C78.5095 46.6301 91.8733 46.6301 95.4655 46.6301C100.858 46.6301 107.368 47.3058 112.31 50.2219C118.937 54.2684 119.366 59.5445 119.366 65.6085V93.9135C119.366 100.008 120.071 102.353 122.414 104.462H106.971ZM105.215 73.7503H104.981C100.293 82.894 83.0613 76.797 83.0613 88.5225C83.0613 94.8512 86.9289 96.7277 92.5551 96.7277C106.505 96.7277 105.215 83.2482 105.215 73.7503ZM90.0816 40.8501H78.2806V28.4244H90.0816V40.8501ZM111.702 40.8492H99.9006V28.4235H111.702V40.8492ZM192.975 152.906C192.037 152.906 191.098 152.733 190.368 152.49C189.811 152.281 189.707 152.281 189.533 152.281C189.082 152.281 188.699 152.595 188.456 153.22H187.899V148.7H188.49C188.872 150.508 190.681 151.76 192.836 151.76C195.202 151.76 196.557 150.681 196.557 148.77C196.557 147.309 195.861 146.649 194.053 145.953L192.002 145.154C189.151 144.041 188.212 142.719 188.212 140.668C188.212 137.886 190.263 136.113 193.428 136.113C194.54 136.113 195.653 136.461 196.731 136.705C196.87 136.739 197.009 136.739 197.113 136.739C197.531 136.739 197.774 136.461 197.947 136.113H198.504V140.181H197.878C197.113 138.199 195.757 137.226 193.775 137.226C191.898 137.226 190.75 138.199 190.75 139.868C190.75 141.189 191.376 141.886 193.254 142.615L195.688 143.554C198.086 144.493 199.199 145.884 199.199 147.97C199.199 150.89 196.661 152.906 192.975 152.906ZM200.381 152.525V151.725C202.572 151.725 203.476 151.343 203.476 149.013V139.73C203.476 137.852 202.885 137.26 200.833 137.26H200.381V136.46H206.605V148.978C206.605 151.169 207.092 151.725 209.213 151.725V152.525H200.381ZM204.971 133.123C204.733 133.124 204.497 133.079 204.277 132.988C204.057 132.898 203.857 132.765 203.689 132.597C203.521 132.429 203.388 132.229 203.297 132.009C203.207 131.789 203.161 131.553 203.163 131.315C203.161 131.077 203.207 130.842 203.297 130.621C203.387 130.401 203.52 130.201 203.689 130.033C203.857 129.865 204.057 129.731 204.277 129.641C204.497 129.551 204.733 129.505 204.971 129.507C205.209 129.505 205.445 129.551 205.665 129.641C205.885 129.731 206.085 129.865 206.253 130.033C206.421 130.201 206.554 130.401 206.645 130.621C206.735 130.841 206.781 131.077 206.779 131.315C206.781 131.553 206.735 131.789 206.645 132.009C206.554 132.229 206.421 132.429 206.253 132.597C206.085 132.765 205.885 132.898 205.665 132.988C205.445 133.079 205.209 133.124 204.971 133.123ZM220.964 152.525V151.725H221.243C222.981 151.725 223.364 151.238 223.364 149.013V141.816C223.364 139.173 222.355 137.852 220.2 137.852C218.878 137.852 217.974 138.408 216.062 139.938V148.943C216.062 151.134 216.583 151.725 218.496 151.725H218.669V152.525H210.464V151.725H210.673C212.585 151.725 213.037 151.134 213.037 148.839V139.695C213.037 137.957 212.272 137.261 210.36 137.261H210.255V136.46H216.027V138.722C218.531 136.879 220.13 136.114 221.868 136.114C224.754 136.114 226.389 138.373 226.389 142.268V148.978C226.389 151.099 226.945 151.725 228.752 151.725H228.891V152.525H220.964ZM237.341 152.906C232.369 152.906 228.996 149.395 228.996 144.249C228.996 139.521 232.299 136.113 236.854 136.113C238.731 136.113 239.6 136.321 241.27 137.192C241.409 137.261 241.513 137.296 241.617 137.296C241.999 137.296 242.278 136.948 242.278 136.426H243.042V140.981H242.209C241.999 138.79 240.018 137.192 237.549 137.192C233.238 137.192 232.299 140.703 232.299 144.18C232.299 148.735 234.489 151.586 237.966 151.586C240.018 151.586 240.922 151.273 242.903 149.813L243.599 150.543C241.478 152.211 239.635 152.906 237.341 152.906ZM259.419 149.743L258.584 148.978C256.95 150.578 255.212 151.377 253.229 151.377C249.161 151.377 247.701 147.24 247.701 143.902V142.824H258.932C258.932 138.756 256.15 136.114 252.048 136.114C247.597 136.114 244.537 139.416 244.537 144.318C244.537 149.325 247.84 152.906 252.43 152.906C255.177 152.906 257.541 151.83 259.419 149.743ZM255.733 141.641H247.84C247.945 139 249.544 137.331 251.873 137.331C254.099 137.331 255.664 139.069 255.733 141.641ZM268.979 152.525V151.725L269.118 151.69C271.553 151.585 271.97 151.168 271.97 148.873V140.111C271.97 137.782 271.483 137.365 268.979 137.296V136.461H275.064V148.943C275.064 151.238 275.482 151.621 277.811 151.725H278.02V152.524L268.979 152.525ZM290.78 147.448C290.78 149.847 289.041 151.552 286.19 151.552C283.2 151.552 281.496 149.535 281.496 146.475C281.496 144.18 282.331 142.163 284.625 141.294C289.355 143.31 290.78 144.91 290.78 147.448ZM293.596 146.336C293.596 143.623 291.823 141.537 288.45 140.286C291.336 139.208 292.727 137.713 292.727 134.966C292.727 131.524 290.155 129.09 286.295 129.09C282.366 129.09 279.514 131.559 279.514 134.827C279.514 137.365 280.314 138.86 283.513 140.668C280.697 141.572 278.68 143.38 278.68 146.579C278.68 150.23 281.706 152.803 286.017 152.803C290.223 152.803 293.596 149.917 293.596 146.336ZM290.084 134.688C290.084 137.261 289.598 138.304 287.303 139.764C283.409 138.095 282.192 136.461 282.192 133.819C282.192 131.837 283.896 130.133 286.017 130.133C288.381 130.133 290.084 132.115 290.084 134.688ZM301.107 138.304L299.02 146.022C299.375 145.955 299.736 145.921 300.098 145.919C304.166 145.919 307.434 149.013 307.434 152.803C307.434 156.8 304.061 160 299.855 160C297.455 160 295.369 158.992 293.909 157.184L294.604 156.558C295.856 157.566 297.455 158.296 299.055 158.296C302.149 158.296 304.131 156.176 304.131 152.906C304.131 149.499 301.94 147.309 298.429 147.309C297.212 147.309 296.134 147.587 295.196 148.178L298.637 136.461H308.894V138.304H301.107ZM323.011 152.525H310.076V152.246C313.171 149.535 319.29 145.919 319.29 141.85C319.29 139.452 317.622 137.644 315.153 137.644C313.588 137.644 312.371 138.477 311.363 139.486L310.389 138.964C311.467 137.226 313.796 135.766 316.648 135.766C320.368 135.766 323.081 138.13 323.081 141.12C323.081 144.354 317.621 148.804 314.597 150.681H319.533C321.446 150.681 322.281 150.264 323.15 148.56L324.297 148.735L323.011 152.525Z" fill="white"/>
</svg>
