<svg width="394" height="156" viewBox="0 0 394 156" fill="none" xmlns="http://www.w3.org/2000/svg">
<rect width="393.391" height="156" rx="78" fill="white"/>
<path d="M80.2227 114.006C64.8117 111.562 52.8846 100.266 49.7218 85.1174C49.1019 82.148 48.8963 76.6519 49.2916 73.6159C51.4199 57.2745 63.5835 44.779 79.9832 42.0871C83.1639 41.565 89.5229 41.7109 92.56 42.3756C105.551 45.2189 115.706 54.2755 119.808 66.6767C121.051 70.4348 121.611 73.9514 121.611 77.9974C121.611 95.0438 109.936 109.597 93.131 113.499C90.4741 114.116 82.8123 114.417 80.2227 114.006ZM83.9888 97.5088C82.0895 95.2932 79.1785 90.6635 78.2885 88.4429C77.4794 86.4245 77.3941 85.9398 77.3897 83.3374C77.3854 80.7387 77.4612 80.297 78.1768 78.7473C79.5846 75.6991 82.1468 73.9938 85.3468 73.9753C90.0286 73.9483 93.472 77.97 93.4505 83.44C93.4364 87.025 91.5636 91.2174 87.8432 95.9922L85.6927 98.7522L87.7701 98.564C93.801 98.0175 99.4559 95.3274 103.742 90.9661C106.043 88.6247 107.213 86.9583 108.618 84.022C110.468 80.1531 111.028 77.6196 111.039 73.0682C111.046 70.0044 110.926 68.7504 110.443 66.8242C107.323 54.3772 95.3113 45.9929 82.6606 47.4314C71.9864 48.6452 63.0906 56.4241 60.4835 66.8242C59.6163 70.2833 59.6271 75.9403 60.5071 79.2297C63.1536 89.1226 71.0316 96.4765 80.9015 98.2675C81.9796 98.4631 83.3398 98.6343 83.9241 98.6479L84.9865 98.6726L83.9888 97.5088ZM228.547 99.3512C225.909 98.8654 222.692 97.7843 221.033 96.8266C217.069 94.5372 214.487 90.2354 213.594 84.4328C213.196 81.8419 213.441 76.1517 214.055 73.7529C215.14 69.5102 217.372 66.1844 220.605 63.9898C223.835 61.7981 230.549 60.5567 236.105 61.1242C241.786 61.7045 245.211 63.1023 248.095 66.0167C250.246 68.1896 251.399 70.3623 252.284 73.911C253.101 77.1846 253.162 84.0931 252.401 87.0343C250.739 93.4537 246.923 97.3116 240.596 98.9697C237.686 99.7323 231.652 99.9233 228.547 99.3512ZM237.842 92.4118C239.9 91.4973 240.818 90.6685 241.789 88.8452C242.972 86.6272 243.462 84.1308 243.462 80.3251C243.462 71.4622 240.344 67.5981 233.202 67.6091C229.905 67.6141 228.04 68.1967 226.294 69.7669C223.943 71.8804 222.937 75.0449 222.937 80.3251C222.937 87.6393 225.217 91.7151 229.98 92.9145C231.823 93.3786 236.312 93.0915 237.842 92.4118ZM149.03 98.3687C148.89 98.0087 145.313 89.8998 141.081 80.3488C136.849 70.7978 133.386 62.8803 133.386 62.7543C133.386 62.6283 134.969 62.5253 136.903 62.5253C140.054 62.5253 140.545 62.5914 141.627 63.1617C142.296 63.5145 143.148 64.277 143.538 64.8732C143.926 65.4645 146.254 70.6927 148.713 76.4913C151.172 82.2899 153.27 87.2021 153.377 87.4072C153.491 87.6291 155.372 83.2754 158.021 76.6555C160.469 70.537 162.736 65.1411 163.059 64.6646C163.382 64.1882 164.189 63.5119 164.853 63.1618C165.952 62.582 166.407 62.5253 169.955 62.5253H173.851L166.331 79.1613C162.195 88.3111 158.505 96.1989 158.132 96.6898C156.981 98.2018 155.573 98.7252 152.23 98.8837C149.32 99.0216 149.282 99.0154 149.03 98.3687ZM187.744 98.3522C182.609 97.38 178.271 92.8446 176.606 86.7058C175.751 83.5521 175.754 77.4919 176.613 74.453C177.942 69.7539 180.651 66.0005 184.004 64.2131C187.108 62.5587 188.147 62.426 198.15 62.4062L207.187 62.3884V65.6745V68.9606L199.375 69.0975L191.564 69.2345L189.761 70.1227C188.502 70.7428 187.727 71.344 187.193 72.1147C186.437 73.2049 185.69 75.4773 185.69 76.6846V77.3063L196.028 77.378L206.365 77.4498V80.599V83.7482L196.028 83.8199L185.69 83.8917V84.4866C185.69 84.8138 185.892 85.7997 186.138 86.6776C186.746 88.8433 188.229 90.5036 190.286 91.3198C191.757 91.9035 192.32 91.9473 199.588 92.043L207.324 92.1449V95.4088V98.6727L198.218 98.642C193.21 98.6252 188.497 98.4948 187.744 98.3522ZM268.486 98.129C267.409 97.8466 266.005 97.3492 265.367 97.0238C263.719 96.183 261.625 93.9846 260.841 92.2729C259.606 89.575 259.513 88.3692 259.502 74.9852L259.491 62.3884H262.367C264.852 62.3884 265.372 62.4697 266.2 62.989C268.033 64.137 267.967 63.6717 268.117 76.4913L268.254 88.1297L268.939 89.3472C269.431 90.223 270.005 90.7611 270.984 91.2641C272.316 91.9485 272.488 91.9654 278.994 92.0534L285.643 92.1432V95.4079V98.6727L278.044 98.6576C271.525 98.6447 270.166 98.5695 268.486 98.129ZM290.907 81.7628C290.979 65.6762 291.008 64.8156 291.503 64.0859C292.37 62.8064 293.437 62.4277 296.528 62.3028L299.335 62.1893V79.0754C299.335 97.71 299.395 97.0478 297.61 98.1361C296.884 98.5787 296.226 98.6708 293.782 98.6716L290.83 98.6727L290.907 81.7628ZM303.859 98.3506C303.936 98.1512 307.185 90.6559 311.078 81.6943C319.006 63.447 319.068 63.3372 321.782 62.6375C323.688 62.1459 328.461 62.1163 328.844 62.5938C329.06 62.8633 343.689 96.356 344.4 98.2084C344.562 98.6303 344.25 98.6727 340.98 98.6727C335.65 98.6727 334.804 98.1354 332.722 93.4299L331.468 90.5943L324.16 90.5213L316.851 90.4484L316.571 91.1863C316.416 91.5922 315.75 93.05 315.089 94.4259C314.13 96.4237 313.655 97.0896 312.73 97.7317C311.598 98.5164 311.476 98.5379 307.645 98.6244C304.472 98.696 303.745 98.6434 303.859 98.3506ZM329.374 83.5428C327.284 78.5282 324.42 71.9188 324.264 71.7509C324.097 71.5718 322.081 76.0007 319.144 82.9951L318.771 83.8851H324.144C328.336 83.8851 329.485 83.8099 329.374 83.5428Z" fill="#ED1C24"/>
</svg>
