<svg width="122" height="15" viewBox="0 0 122 15" fill="none" xmlns="http://www.w3.org/2000/svg">
<path d="M8.32 7.94C8.32 7.04667 8.16667 6.31333 7.86 5.74C7.56667 5.16667 7.15333 4.74 6.62 4.46C6.1 4.16667 5.49333 4.02 4.8 4.02C4.56 4.02 4.32667 4.03333 4.1 4.06C3.88667 4.07333 3.66667 4.09333 3.44 4.12V11.7C3.64 11.74 3.86667 11.7733 4.12 11.8C4.37333 11.8133 4.61333 11.82 4.84 11.82C5.89333 11.82 6.73333 11.4933 7.36 10.84C8 10.1867 8.32 9.22 8.32 7.94ZM11.46 7.88C11.46 9.32 11.18 10.5133 10.62 11.46C10.0733 12.4067 9.3 13.12 8.3 13.6C7.31333 14.0667 6.15333 14.3 4.82 14.3C4.38 14.3 3.84 14.2667 3.2 14.2C2.56 14.1467 1.98 14.0267 1.46 13.84C0.766667 13.5867 0.42 13.14 0.42 12.5V2.94C0.42 2.67333 0.493333 2.47333 0.64 2.34C0.786667 2.19333 0.98 2.07333 1.22 1.98C1.75333 1.80667 2.32667 1.69333 2.94 1.64C3.55333 1.58667 4.11333 1.56 4.62 1.56C5.99333 1.56 7.18667 1.79333 8.2 2.26C9.22667 2.71333 10.0267 3.40667 10.6 4.34C11.1733 5.27333 11.46 6.45333 11.46 7.88ZM13.3217 1.64C13.3217 1.18667 13.4751 0.806666 13.7817 0.5C14.1017 0.193333 14.5017 0.0399997 14.9817 0.0399997C15.4751 0.0399997 15.8751 0.193333 16.1817 0.5C16.4884 0.806666 16.6417 1.18667 16.6417 1.64C16.6417 2.08 16.4884 2.46 16.1817 2.78C15.8751 3.1 15.4751 3.26 14.9817 3.26C14.5017 3.26 14.1017 3.1 13.7817 2.78C13.4751 2.46 13.3217 2.08 13.3217 1.64ZM13.5017 8.72H16.4617V13.98C16.3417 14.02 16.1617 14.0533 15.9217 14.08C15.6817 14.12 15.4217 14.14 15.1417 14.14C14.5684 14.14 14.1484 14.04 13.8817 13.84C13.6284 13.64 13.5017 13.28 13.5017 12.76V8.72ZM16.4617 10.26H13.5017V4.52C13.6217 4.48 13.8017 4.44 14.0417 4.4C14.2951 4.36 14.5617 4.34 14.8417 4.34C15.4151 4.34 15.8284 4.44 16.0817 4.64C16.3351 4.82667 16.4617 5.19333 16.4617 5.74V10.26ZM25.0909 11.62V5.6H28.0509V12C28.0509 12.32 27.9843 12.5933 27.8509 12.82C27.7176 13.0333 27.5043 13.2267 27.2109 13.4C26.8509 13.64 26.3843 13.8467 25.8109 14.02C25.2376 14.2067 24.5776 14.3 23.8309 14.3C22.7109 14.3 21.7443 14.1133 20.9309 13.74C20.1309 13.3667 19.5109 12.8067 19.0709 12.06C18.6309 11.3 18.4109 10.36 18.4109 9.24C18.4109 8.06667 18.6309 7.10667 19.0709 6.36C19.5243 5.6 20.1309 5.03333 20.8909 4.66C21.6509 4.28667 22.4909 4.1 23.4109 4.1C23.8909 4.1 24.3176 4.15333 24.6909 4.26C25.0643 4.36667 25.3709 4.49333 25.6109 4.64V7.08C25.4243 6.92 25.1776 6.77333 24.8709 6.64C24.5643 6.50667 24.2109 6.44 23.8109 6.44C23.3443 6.44 22.9309 6.54 22.5709 6.74C22.2109 6.94 21.9309 7.24667 21.7309 7.66C21.5309 8.07333 21.4309 8.6 21.4309 9.24C21.4309 10.1733 21.6376 10.86 22.0509 11.3C22.4776 11.74 23.0509 11.96 23.7709 11.96C24.0643 11.96 24.3243 11.9267 24.5509 11.86C24.7776 11.78 24.9576 11.7 25.0909 11.62ZM28.0509 6.18L25.0909 6.2V0.98C25.2109 0.939999 25.3909 0.899999 25.6309 0.86C25.8709 0.82 26.1309 0.799999 26.4109 0.799999C26.9976 0.799999 27.4176 0.899999 27.6709 1.1C27.9243 1.3 28.0509 1.66667 28.0509 2.2V6.18ZM36.4939 10.1H33.7739C33.4272 9.59333 33.0472 9.02 32.6339 8.38C32.2206 7.74 31.8139 7.08 31.4139 6.4C31.0139 5.70667 30.6339 5.04 30.2739 4.4C29.9272 3.76 29.6472 3.18667 29.4339 2.68C29.5806 2.46667 29.7806 2.26667 30.0339 2.08C30.3006 1.89333 30.6339 1.8 31.0339 1.8C31.4872 1.8 31.8539 1.9 32.1339 2.1C32.4139 2.28667 32.6806 2.63333 32.9339 3.14C32.9872 3.22 33.0806 3.4 33.2139 3.68C33.3606 3.94667 33.5272 4.26 33.7139 4.62C33.9139 4.98 34.1072 5.34667 34.2939 5.72C34.4806 6.09333 34.6406 6.41333 34.7739 6.68C34.9206 6.94667 35.0139 7.11333 35.0539 7.18H35.1539C35.4606 6.56667 35.7339 6 35.9739 5.48C36.2139 4.96 36.4472 4.43333 36.6739 3.9C36.9139 3.35333 37.1739 2.76 37.4539 2.12C37.6539 2.01333 37.8806 1.93333 38.1339 1.88C38.3872 1.82667 38.6272 1.8 38.8539 1.8C39.2672 1.8 39.6139 1.90667 39.8939 2.12C40.1739 2.33333 40.3139 2.65333 40.3139 3.08C40.3139 3.24 40.2539 3.47333 40.1339 3.78C40.0139 4.08667 39.8072 4.51333 39.5139 5.06C39.2206 5.59333 38.8272 6.27333 38.3339 7.1C37.8539 7.91333 37.2406 8.91333 36.4939 10.1ZM33.6139 9H36.6139V13.98C36.4806 14.02 36.2806 14.0533 36.0139 14.08C35.7606 14.12 35.5006 14.14 35.2339 14.14C34.6339 14.14 34.2139 14.04 33.9739 13.84C33.7339 13.6267 33.6139 13.26 33.6139 12.74V9ZM51.4811 9.2C51.4811 10.24 51.2678 11.1467 50.8411 11.92C50.4278 12.68 49.8411 13.2667 49.0811 13.68C48.3211 14.0933 47.4278 14.3 46.4011 14.3C45.3878 14.3 44.4944 14.1 43.7211 13.7C42.9611 13.2867 42.3678 12.7 41.9411 11.94C41.5278 11.1667 41.3211 10.2533 41.3211 9.2C41.3211 8.14667 41.5344 7.24667 41.9611 6.5C42.3878 5.74 42.9811 5.15333 43.7411 4.74C44.5144 4.31333 45.4011 4.1 46.4011 4.1C47.4144 4.1 48.3011 4.31333 49.0611 4.74C49.8211 5.15333 50.4144 5.74667 50.8411 6.52C51.2678 7.28 51.4811 8.17333 51.4811 9.2ZM46.4011 6.44C45.7744 6.44 45.2744 6.68 44.9011 7.16C44.5411 7.64 44.3611 8.32 44.3611 9.2C44.3611 10.0933 44.5411 10.78 44.9011 11.26C45.2611 11.7267 45.7611 11.96 46.4011 11.96C47.0411 11.96 47.5411 11.72 47.9011 11.24C48.2611 10.76 48.4411 10.08 48.4411 9.2C48.4411 8.33333 48.2611 7.66 47.9011 7.18C47.5411 6.68667 47.0411 6.44 46.4011 6.44ZM53.3436 10.26V8.82H56.3036V10.24C56.3036 10.8533 56.4569 11.2933 56.7636 11.56C57.0836 11.8267 57.5303 11.96 58.1036 11.96C58.4636 11.96 58.7636 11.9267 59.0036 11.86C59.2436 11.7933 59.4236 11.7267 59.5436 11.66V8.82H62.5236V12.02C62.5236 12.34 62.4569 12.6133 62.3236 12.84C62.2036 13.0667 62.0036 13.2667 61.7236 13.44C61.2969 13.7067 60.7703 13.9133 60.1436 14.06C59.5303 14.22 58.8436 14.3 58.0836 14.3C57.1369 14.3 56.3036 14.16 55.5836 13.88C54.8769 13.6 54.3236 13.1667 53.9236 12.58C53.5369 11.98 53.3436 11.2067 53.3436 10.26ZM62.5236 9.72H59.5436V4.44C59.6769 4.4 59.8636 4.36 60.1036 4.32C60.3436 4.28 60.6036 4.26 60.8836 4.26C61.4569 4.26 61.8703 4.36 62.1236 4.56C62.3903 4.74667 62.5236 5.11333 62.5236 5.66V9.72ZM56.3036 9.72H53.3436V4.44C53.4636 4.4 53.6436 4.36 53.8836 4.32C54.1236 4.28 54.3836 4.26 54.6636 4.26C55.2369 4.26 55.6503 4.36 55.9036 4.56C56.1703 4.74667 56.3036 5.11333 56.3036 5.66V9.72ZM65.088 5.34L67.848 5.3C67.9013 5.87333 67.9413 6.44 67.968 7C67.9946 7.56 68.008 8.1 68.008 8.62C68.0213 9.14 68.028 9.64667 68.028 10.14V14C67.908 14.0267 67.7146 14.0533 67.448 14.08C67.1946 14.12 66.9346 14.14 66.668 14.14C66.0813 14.14 65.668 14.04 65.428 13.84C65.2013 13.64 65.088 13.28 65.088 12.76V5.34ZM75.748 10.48L72.968 10.5C72.8746 9.52667 72.8213 8.6 72.808 7.72C72.7946 6.84 72.788 6 72.788 5.2V1.84C72.9213 1.81333 73.1146 1.78 73.368 1.74C73.6213 1.7 73.888 1.68 74.168 1.68C74.7413 1.68 75.148 1.78667 75.388 2C75.628 2.2 75.748 2.55333 75.748 3.06V10.48ZM75.748 9.52V7.58V13.62C75.5746 13.78 75.328 13.9067 75.008 14C74.7013 14.1067 74.3346 14.16 73.908 14.16C73.4546 14.16 73.028 14.0867 72.628 13.94C72.2413 13.7933 71.9213 13.4667 71.668 12.96L69.248 8.36C69.1013 8.06667 68.9546 7.77333 68.808 7.48C68.6746 7.18667 68.5413 6.89333 68.408 6.6C68.2746 6.29333 68.1413 5.98667 68.008 5.68L65.088 6.34V2.4C65.248 2.17333 65.4946 2 65.828 1.88C66.1746 1.76 66.548 1.7 66.948 1.7C67.388 1.7 67.8013 1.77333 68.188 1.92C68.588 2.06667 68.9146 2.38667 69.168 2.88L71.608 7.5C71.7546 7.78 71.9013 8.07333 72.048 8.38C72.1946 8.67333 72.3346 8.96667 72.468 9.26C72.6013 9.55333 72.728 9.85333 72.848 10.16L75.748 9.52ZM88.0045 9.2C88.0045 10.24 87.7912 11.1467 87.3645 11.92C86.9512 12.68 86.3645 13.2667 85.6045 13.68C84.8445 14.0933 83.9512 14.3 82.9245 14.3C81.9112 14.3 81.0179 14.1 80.2445 13.7C79.4845 13.2867 78.8912 12.7 78.4645 11.94C78.0512 11.1667 77.8445 10.2533 77.8445 9.2C77.8445 8.14667 78.0579 7.24667 78.4845 6.5C78.9112 5.74 79.5045 5.15333 80.2645 4.74C81.0379 4.31333 81.9245 4.1 82.9245 4.1C83.9379 4.1 84.8245 4.31333 85.5845 4.74C86.3445 5.15333 86.9379 5.74667 87.3645 6.52C87.7912 7.28 88.0045 8.17333 88.0045 9.2ZM82.9245 6.44C82.2979 6.44 81.7979 6.68 81.4245 7.16C81.0645 7.64 80.8845 8.32 80.8845 9.2C80.8845 10.0933 81.0645 10.78 81.4245 11.26C81.7845 11.7267 82.2845 11.96 82.9245 11.96C83.5645 11.96 84.0645 11.72 84.4245 11.24C84.7845 10.76 84.9645 10.08 84.9645 9.2C84.9645 8.33333 84.7845 7.66 84.4245 7.18C84.0645 6.68667 83.5645 6.44 82.9245 6.44ZM89.887 8.72H92.827V10.86C92.827 11.2333 92.947 11.5067 93.187 11.68C93.427 11.8533 93.767 11.94 94.207 11.94C94.407 11.94 94.6204 11.92 94.847 11.88C95.087 11.8267 95.287 11.7667 95.447 11.7C95.5537 11.82 95.647 11.9667 95.727 12.14C95.8204 12.3133 95.867 12.5133 95.867 12.74C95.867 13.1933 95.6804 13.5667 95.307 13.86C94.9337 14.1533 94.307 14.3 93.427 14.3C92.307 14.3 91.4337 14.0467 90.807 13.54C90.1937 13.0333 89.887 12.2067 89.887 11.06V8.72ZM91.767 6.9V4.62H95.607C95.6737 4.72667 95.7404 4.88 95.807 5.08C95.8737 5.28 95.907 5.5 95.907 5.74C95.907 6.14 95.8137 6.43333 95.627 6.62C95.4537 6.80667 95.2137 6.9 94.907 6.9H91.767ZM92.827 9.22H89.887V2.04C90.0204 2 90.207 1.96 90.447 1.92C90.687 1.86667 90.9404 1.84 91.207 1.84C91.7804 1.84 92.1937 1.94 92.447 2.14C92.7004 2.34 92.827 2.70667 92.827 3.24V9.22ZM97.5795 1.64C97.5795 1.18667 97.7329 0.806666 98.0395 0.5C98.3595 0.193333 98.7595 0.0399997 99.2395 0.0399997C99.7329 0.0399997 100.133 0.193333 100.44 0.5C100.746 0.806666 100.9 1.18667 100.9 1.64C100.9 2.08 100.746 2.46 100.44 2.78C100.133 3.1 99.7329 3.26 99.2395 3.26C98.7595 3.26 98.3595 3.1 98.0395 2.78C97.7329 2.46 97.5795 2.08 97.5795 1.64ZM97.7595 8.72H100.72V13.98C100.6 14.02 100.42 14.0533 100.18 14.08C99.9395 14.12 99.6795 14.14 99.3995 14.14C98.8262 14.14 98.4062 14.04 98.1395 13.84C97.8862 13.64 97.7595 13.28 97.7595 12.76V8.72ZM100.72 10.26H97.7595V4.52C97.8795 4.48 98.0595 4.44 98.2995 4.4C98.5529 4.36 98.8195 4.34 99.0995 4.34C99.6729 4.34 100.086 4.44 100.34 4.64C100.593 4.82667 100.72 5.19333 100.72 5.74V10.26ZM108.309 6.46C107.589 6.46 106.969 6.7 106.449 7.18C105.942 7.64667 105.689 8.33333 105.689 9.24C105.689 10.1333 105.935 10.8067 106.429 11.26C106.922 11.7133 107.542 11.94 108.289 11.94C108.729 11.94 109.109 11.8867 109.429 11.78C109.762 11.66 110.049 11.5333 110.289 11.4C110.515 11.56 110.689 11.74 110.809 11.94C110.929 12.1267 110.989 12.36 110.989 12.64C110.989 13.1333 110.722 13.5333 110.189 13.84C109.655 14.1467 108.915 14.3 107.969 14.3C106.915 14.3 105.989 14.1133 105.189 13.74C104.389 13.3533 103.769 12.78 103.329 12.02C102.889 11.26 102.669 10.3333 102.669 9.24C102.669 8.08 102.909 7.12667 103.389 6.38C103.869 5.62 104.502 5.05333 105.289 4.68C106.089 4.29333 106.955 4.1 107.889 4.1C108.809 4.1 109.529 4.26667 110.049 4.6C110.582 4.93333 110.849 5.34667 110.849 5.84C110.849 6.08 110.789 6.3 110.669 6.5C110.562 6.68667 110.435 6.85333 110.289 7C110.035 6.86667 109.742 6.74667 109.409 6.64C109.089 6.52 108.722 6.46 108.309 6.46ZM114.235 10.6L114.115 8.6L119.075 7.82C119.049 7.44667 118.889 7.1 118.595 6.78C118.302 6.46 117.869 6.3 117.295 6.3C116.695 6.3 116.195 6.50667 115.795 6.92C115.395 7.32 115.182 7.89333 115.155 8.64L115.255 10.02C115.375 10.7533 115.689 11.28 116.195 11.6C116.702 11.9067 117.302 12.06 117.995 12.06C118.555 12.06 119.082 11.98 119.575 11.82C120.069 11.66 120.469 11.4933 120.775 11.32C120.975 11.44 121.135 11.6067 121.255 11.82C121.389 12.0333 121.455 12.26 121.455 12.5C121.455 12.9 121.295 13.2333 120.975 13.5C120.669 13.7667 120.235 13.9667 119.675 14.1C119.129 14.2333 118.502 14.3 117.795 14.3C116.769 14.3 115.842 14.1067 115.015 13.72C114.202 13.3333 113.562 12.7533 113.095 11.98C112.629 11.2067 112.395 10.24 112.395 9.08C112.395 8.22667 112.529 7.48667 112.795 6.86C113.075 6.23333 113.442 5.72 113.895 5.32C114.362 4.90667 114.882 4.6 115.455 4.4C116.042 4.2 116.649 4.1 117.275 4.1C118.195 4.1 118.995 4.28667 119.675 4.66C120.369 5.02 120.909 5.51333 121.295 6.14C121.682 6.76667 121.875 7.49333 121.875 8.32C121.875 8.73333 121.762 9.04667 121.535 9.26C121.309 9.47333 120.995 9.60667 120.595 9.66L114.235 10.6Z" fill="white"/>
</svg>
