<svg width="565" height="80" viewBox="0 0 565 80" fill="none" xmlns="http://www.w3.org/2000/svg">
<mask id="mask0_128_964" style="mask-type:luminance" maskUnits="userSpaceOnUse" x="0" y="0" width="565" height="80">
<path d="M564.26 0H0V79.66H564.26V0Z" fill="white"/>
</mask>
<g mask="url(#mask0_128_964)">
<path d="M543.51 75.7795H544.2C544.78 75.7795 545.32 75.7495 545.32 75.1095C545.32 74.5695 544.84 74.4795 544.39 74.4795H543.51V75.7795ZM542.85 73.9695H544.49C545.5 73.9695 545.98 74.3495 545.98 75.1395C545.98 75.8795 545.5 76.1895 544.86 76.2495L546.08 78.0495H545.37L544.21 76.2995H543.51V78.0495H542.85V73.9695ZM544.27 78.9895C545.95 78.9895 547.25 77.6995 547.25 75.9895C547.25 74.3195 545.95 73.0295 544.27 73.0295C542.57 73.0295 541.27 74.3195 541.27 75.9895C541.27 77.7095 542.57 78.9895 544.27 78.9895ZM544.27 72.5195C546.26 72.5195 547.92 74.0195 547.92 75.9895C547.92 77.9995 546.26 79.4995 544.27 79.4995C542.28 79.4995 540.61 77.9995 540.61 75.9895C540.61 74.0295 542.28 72.5195 544.27 72.5195Z" fill="white"/>
</g>
<mask id="mask1_128_964" style="mask-type:luminance" maskUnits="userSpaceOnUse" x="0" y="0" width="565" height="80">
<path d="M564.26 0H0V79.66H564.26V0Z" fill="white"/>
</mask>
<g mask="url(#mask1_128_964)">
<path d="M210.17 39.95C220.78 39.95 226.67 34.52 226.67 26.26V26.03C226.67 17.09 220.66 12.45 210.41 12.45H195.44V39.95H210.17ZM181.76 0.459961H211.58C221.01 0.459961 228.67 3.16996 233.62 7.92996C237.98 12.12 240.45 18.11 240.45 25.36V25.81C240.45 38.03 233.38 45.61 223.36 49.01L247.89 79.68H232.09L209.45 51.62C209.21 51.73 208.86 51.73 208.62 51.73H195.42V79.68H181.74V0.459961H181.76Z" fill="white"/>
<path d="M302.19 0.459961L282.97 34.74L263.88 0.459961H248.2L276.02 48.09V79.66H289.69V47.98L317.39 0.459961H302.19Z" fill="white"/>
<path d="M549.83 0.459961L530.62 34.74L511.52 0.459961H495.84L523.66 48.09V79.66H537.33V47.98L565.03 0.459961H549.83Z" fill="white"/>
<path d="M63.59 0.459961L39.13 57.06L14.45 0.459961H0.77002V79.66H14.67V33.02L35.07 79.66H42.97L63.53 30.95V79.66H77.36V0.459961H63.59Z" fill="white"/>
<path d="M401.93 0.459961L372.9 33.67H372.16V0.459961H358.29V79.66H372.16V46.29H372.75L403.02 79.66H420.31L383.81 40.06L419.22 0.459961H401.93Z" fill="white"/>
<path d="M129.85 17.54L143.15 53.68H116.55L129.85 17.54ZM123.48 0L93.1899 79.66H106.98L112.17 65.58H147.53L152.72 79.66H166.98L136.69 0H123.48Z" fill="white"/>
<path d="M462.34 17.54L475.64 53.68H449.04L462.34 17.54ZM455.97 0L425.68 79.66H439.47L444.66 65.58H480.03L485.21 79.66H499.47L469.18 0H455.97Z" fill="white"/>
</g>
</svg>
