<svg width="60" height="60" viewBox="0 0 60 60" fill="none" xmlns="http://www.w3.org/2000/svg">
<g filter="url(#filter0_d_119_488)">
<rect x="8" y="8" width="44" height="44" rx="8" fill="#2B2B2B" shape-rendering="crispEdges"/>
<path d="M27.9978 37.3276V32.3276H31.9978V37.3276C31.9978 37.8776 32.4478 38.3276 32.9978 38.3276H35.9978C36.5478 38.3276 36.9978 37.8776 36.9978 37.3276V30.3276H38.6978C39.1578 30.3276 39.3778 29.7576 39.0278 29.4576L30.6678 21.9276C30.2878 21.5876 29.7078 21.5876 29.3278 21.9276L20.9678 29.4576C20.6278 29.7576 20.8378 30.3276 21.2978 30.3276H22.9978V37.3276C22.9978 37.8776 23.4478 38.3276 23.9978 38.3276H26.9978C27.5478 38.3276 27.9978 37.8776 27.9978 37.3276Z" fill="white"/>
</g>
<defs>
<filter id="filter0_d_119_488" x="0" y="0" width="60" height="60" filterUnits="userSpaceOnUse" color-interpolation-filters="sRGB">
<feFlood flood-opacity="0" result="BackgroundImageFix"/>
<feColorMatrix in="SourceAlpha" type="matrix" values="0 0 0 0 0 0 0 0 0 0 0 0 0 0 0 0 0 0 127 0" result="hardAlpha"/>
<feOffset/>
<feGaussianBlur stdDeviation="4"/>
<feComposite in2="hardAlpha" operator="out"/>
<feColorMatrix type="matrix" values="0 0 0 0 0 0 0 0 0 0 0 0 0 0 0 0 0 0 0.25 0"/>
<feBlend mode="normal" in2="BackgroundImageFix" result="effect1_dropShadow_119_488"/>
<feBlend mode="normal" in="SourceGraphic" in2="effect1_dropShadow_119_488" result="shape"/>
</filter>
</defs>
</svg>
